#!OML:ASF F:\VICON\USERDATA\INSTALL\rory3\rory3.ASF
:FULLY-SPECIFIED
:DEGREES
172
root 1.71155 17.2499 34.8482 -161.2 -52.8393 -172.186
lowerback -17.5312 2.14573 1.99101
upperback -9.65252 1.44582 2.15324
thorax -0.495004 0.248856 1.38704
lowerneck -1.89427 -8.58075 -2.7867
upperneck 23.2089 -15.0056 7.28924
head 8.2893 -7.32745 1.58685
rclavicle -5.90887e-014 -2.18663e-014
rhumerus -45.6552 11.4936 -80.4774
rradius 26.7232
rwrist -14.6879
rhand 19.6746 -2.44716
rfingers 7.12502
rthumb 44.2318 -26.243
lclavicle -5.90887e-014 -2.18663e-014
lhumerus -46.2275 4.76291 69.7496
lradius 36.3763
lwrist 2.29745
lhand -2.60873 23.3543
lfingers 7.12502
lthumb 23.0894 51.9909
rfemur -18.0679 -6.29405 32.7855
rtibia 41.4611
rfoot 39.5165 -18.3782
rtoes 24.2067
lfemur -39.3735 2.05748 -28.5795
ltibia 31.3246
lfoot -42.3144 28.6905
ltoes 24.2322
173
root 1.71643 17.253 34.8472 -161.283 -52.7995 -172.045
lowerback -17.6215 2.16073 1.98681
upperback -9.59369 1.46278 2.21981
thorax -0.387714 0.261076 1.46447
lowerneck -2.03775 -8.52196 -2.67929
upperneck 23.4264 -14.8999 7.0379
head 8.35432 -7.27901 1.48692
rclavicle -1.44367e-014 -6.1822e-014
rhumerus -45.0209 10.2839 -79.509
rradius 26.4945
rwrist -13.2876
rhand 20.9878 -3.16312
rfingers 7.12502
rthumb 45.4541 -26.4815
lclavicle -1.44367e-014 -6.1822e-014
lhumerus -45.9374 5.04724 69.9036
lradius 36.2124
lwrist 2.00818
lhand -4.27135 23.5377
lfingers 7.12502
lthumb 21.4934 52.3652
rfemur -18.1834 -6.14203 32.9062
rtibia 41.5267
rfoot 39.5359 -19.0449
rtoes 24.9855
lfemur -39.4305 2.03749 -28.446
ltibia 31.34
lfoot -42.1211 28.9293
ltoes 23.7809
174
root 1.71851 17.2524 34.8471 -161.511 -52.8547 -171.765
lowerback -17.7163 2.13892 2.17325
upperback -9.50014 1.40339 2.31411
thorax -0.235613 0.229943 1.451
lowerneck -2.39546 -8.40171 -2.57989
upperneck 23.8004 -14.7047 6.7099
head 8.50124 -7.18372 1.35598
rclavicle -1.32565e-014 -3.65764e-014
rhumerus -44.4687 9.24514 -78.7881
rradius 26.1514
rwrist -11.5973
rhand 20.9523 -2.72057
rfingers 7.12502
rthumb 45.4212 -26.0523
lclavicle -1.32565e-014 -3.65764e-014
lhumerus -45.7036 5.64229 69.8682
lradius 36.0526
lwrist 1.60317
lhand -5.67736 23.4723
lfingers 7.12502
lthumb 20.1425 52.4481
rfemur -18.2304 -6.20883 33.1279
rtibia 41.5976
rfoot 39.4777 -19.4341
rtoes 25.6632
lfemur -39.4825 2.02842 -28.2255
ltibia 31.4347
lfoot -42.3756 28.6128
ltoes 24.33
175
root 1.71353 17.2482 34.8503 -161.584 -52.9775 -171.617
lowerback -17.8914 2.08878 2.42358
upperback -9.43296 1.28907 2.35817
thorax -0.0673889 0.165687 1.3403
lowerneck -2.80433 -8.21722 -2.60634
upperneck 24.308 -14.4573 6.4766
head 8.7193 -7.06584 1.2737
rclavicle 1.60519e-014 2.50469e-014
rhumerus -44.0825 8.61954 -78.4183
rradius 25.8208
rwrist -10.0726
rhand 20.0968 -2.07406
rfingers 7.12502
rthumb 44.6252 -25.7197
lclavicle 1.60519e-014 2.50469e-014
lhumerus -45.5394 6.30626 69.7241
lradius 35.8797
lwrist 1.55109
lhand -6.9029 23.311
lfingers 7.12502
lthumb 18.9642 52.4065
rfemur -18.2982 -6.64635 33.229
rtibia 41.6282
rfoot 39.4266 -19.4539
rtoes 26.0102
lfemur -39.6029 2.17016 -28.2351
ltibia 31.5532
lfoot -42.2288 28.4132
ltoes 24.1619
176
root 1.71562 17.2446 34.852 -161.623 -52.9775 -171.594
lowerback -17.9268 2.05699 2.47254
upperback -9.38581 1.24038 2.37863
thorax 0.00236303 0.142412 1.32649
lowerneck -2.91384 -8.03379 -2.57359
upperneck 24.6138 -14.2164 6.33124
head 8.81784 -6.95663 1.23213
rclavicle -3.01656e-014 -5.00937e-014
rhumerus -43.777 8.09795 -78.1451
rradius 25.4777
rwrist -8.8456
rhand 20.4398 -2.06061
rfingers 7.12502
rthumb 44.9446 -25.582
lclavicle -3.01656e-014 -5.00937e-014
lhumerus -45.4344 6.97296 69.5567
lradius 35.8114
lwrist 1.65525
lhand -8.02969 23.3427
lfingers 7.12502
lthumb 17.8803 52.5408
rfemur -18.1666 -6.8562 33.2569
rtibia 41.3692
rfoot 39.2505 -20.0069
rtoes 27.0336
lfemur -39.7067 2.30699 -28.294
ltibia 31.7407
lfoot -41.9828 28.524
ltoes 23.5613
177
root 1.72083 17.2423 34.8508 -161.916 -52.9601 -171.356
lowerback -17.8389 2.07575 2.63725
upperback -9.30971 1.25318 2.38537
thorax 0.042292 0.148951 1.24151
lowerneck -3.03997 -7.89849 -2.35866
upperneck 24.7761 -14.0237 6.15977
head 8.85808 -6.85625 1.15153
rclavicle 5.75233e-015 -4.57205e-014
rhumerus -43.5001 7.24946 -77.7924
rradius 25.2382
rwrist -8.02788
rhand 20.0961 -1.98281
rfingers 7.12502
rthumb 44.6246 -25.6287
lclavicle 5.75233e-015 -4.57205e-014
lhumerus -45.2317 7.54638 69.3923
lradius 35.7242
lwrist 1.68296
lhand -8.93632 23.3399
lfingers 7.12502
lthumb 17.0077 52.6154
rfemur -17.903 -6.90373 33.4543
rtibia 41.0926
rfoot 39.1291 -20.465
rtoes 27.7416
lfemur -39.6982 2.56017 -28.2002
ltibia 31.8569
lfoot -41.6409 28.7535
ltoes 22.8386
178
root 1.74854 17.2495 34.7258 -163.674 -52.7184 -171.582
lowerback -16.6523 1.65481 1.05184
upperback -8.64365 1.09109 2.68254
thorax 0.0996621 0.18877 2.40073
lowerneck -3.21627 -7.77358 -2.09487
upperneck 25.0546 -13.8686 5.95649
head 8.94549 -6.77083 1.04325
rclavicle -8.22969e-014 -1.68967e-014
rhumerus -43.3271 6.184 -77.3775
rradius 25.1765
rwrist -7.49832
rhand 19.5791 -2.20672
rfingers 7.12502
rthumb 44.1428 -26.0361
lclavicle -8.22969e-014 -1.68967e-014
lhumerus -45.0987 7.90334 69.2197
lradius 35.728
lwrist 1.90844
lhand -9.29082 23.3323
lfingers 7.12502
lthumb 16.6665 52.6368
rfemur -14.9959 -6.63208 33.5213
rtibia 40.5728
rfoot 38.6178 -20.882
rtoes 27.4429
lfemur -37.4365 5.29301 -28.5235
ltibia 31.983
lfoot -40.1894 27.4945
ltoes 21.6196
179
root 1.76024 17.2586 34.729 -163.685 -52.4972 -171.69
lowerback -16.3998 1.66039 0.984924
upperback -8.65098 1.12287 2.65422
thorax -0.0416049 0.209421 2.40901
lowerneck -3.3225 -7.64659 -2.10002
upperneck 25.4222 -13.7372 5.86091
head 9.08056 -6.71493 1.01092
rclavicle -1.50989e-013 -1.15295e-014
rhumerus -42.9655 5.38359 -76.9968
rradius 24.9255
rwrist -6.96541
rhand 18.7744 -2.30129
rfingers 7.12502
rthumb 43.3917 -26.4073
lclavicle -1.50989e-013 -1.15295e-014
lhumerus -45.0862 8.41128 69.0751
lradius 35.7615
lwrist 2.31439
lhand -9.55848 23.3639
lfingers 7.12502
lthumb 16.4088 52.6899
rfemur -14.8202 -6.21521 33.4622
rtibia 40.2733
rfoot 38.8954 -21.6628
rtoes 28.3581
lfemur -37.3546 5.13933 -28.481
ltibia 32.0029
lfoot -40.6204 27.5802
ltoes 22.2836
180
root 1.76863 17.2629 34.733 -163.777 -52.2971 -171.657
lowerback -16.2306 1.67876 1.05089
upperback -8.63589 1.14839 2.63543
thorax -0.112436 0.222087 2.35277
lowerneck -3.44608 -7.50641 -2.15246
upperneck 25.7554 -13.6034 5.8726
head 9.21901 -6.65228 1.02159
rclavicle 1.30589e-013 4.29375e-014
rhumerus -42.0941 4.82482 -76.6004
rradius 24.1837
rwrist -6.56037
rhand 18.1564 -1.97763
rfingers 7.12502
rthumb 42.8139 -26.289
lclavicle 1.30589e-013 4.29375e-014
lhumerus -45.0982 8.97291 68.9483
lradius 35.8521
lwrist 2.57867
lhand -9.81865 23.6003
lfingers 7.12502
lthumb 16.1583 52.9468
rfemur -14.674 -6.05673 33.4539
rtibia 39.9929
rfoot 39.0447 -22.336
rtoes 29.1316
lfemur -37.3173 5.11224 -28.418
ltibia 31.9932
lfoot -40.6145 27.9443
ltoes 21.8925
181
root 1.77617 17.2686 34.7311 -163.828 -52.1642 -171.712
lowerback -16.0774 1.68812 0.982585
upperback -8.60015 1.1848 2.59757
thorax -0.156256 0.24626 2.35426
lowerneck -3.59002 -7.35574 -2.13017
upperneck 26.0347 -13.4752 5.97045
head 9.3448 -6.57702 1.04923
rclavicle 4.64224e-014 -7.95139e-016
rhumerus -42.0337 2.8154 -75.6353
rradius 23.9722
rwrist -4.97948
rhand 18.001 -1.8476
rfingers 7.12502
rthumb 42.6685 -26.2096
lclavicle 4.64224e-014 -7.95139e-016
lhumerus -45.0323 9.30815 68.9646
lradius 36.0355
lwrist 3.23848
lhand -10.0799 23.8407
lfingers 7.12502
lthumb 15.9067 53.2075
rfemur -14.7791 -5.90479 33.4337
rtibia 40.3582
rfoot 38.6607 -23.0645
rtoes 29.8284
lfemur -37.1221 5.06142 -28.3798
ltibia 31.8027
lfoot -40.5911 28.1381
ltoes 21.7782
182
root 1.78586 17.265 34.7128 -163.773 -52.1672 -172.107
lowerback -15.9345 1.53013 0.53021
upperback -8.49706 1.06253 2.57568
thorax -0.127211 0.208888 2.56545
lowerneck -3.74378 -7.17894 -2.03949
upperneck 26.3604 -13.2994 5.96555
head 9.47468 -6.48279 1.03581
rclavicle -4.96962e-016 1.98785e-016
rhumerus -41.61 2.0967 -75.4748
rradius 23.1468
rwrist -3.88365
rhand 16.4468 -0.870332
rfingers 7.12502
rthumb 41.2117 -25.7191
lclavicle -4.96962e-016 1.98785e-016
lhumerus -45.0599 9.60433 68.9862
lradius 36.2739
lwrist 4.23806
lhand -10.0453 24.0487
lfingers 7.12502
lthumb 15.94 53.4127
rfemur -14.7695 -6.1779 33.2497
rtibia 40.9651
rfoot 38.2333 -23.2102
rtoes 29.7005
lfemur -36.755 5.5101 -28.6794
ltibia 31.6647
lfoot -40.6434 27.4867
ltoes 22.6659
183
root 1.77409 17.2501 34.8237 -162.308 -52.0043 -172.324
lowerback -16.5131 1.93637 1.81386
upperback -8.97163 1.34613 2.03014
thorax -0.292187 0.260581 1.32183
lowerneck -3.79459 -7.05844 -1.70369
upperneck 26.5932 -13.1921 5.85604
head 9.53244 -6.41365 0.948836
rclavicle -1.25234e-014 -1.64991e-014
rhumerus -41.3504 0.781567 -75.1898
rradius 22.5846
rwrist -3.12051
rhand 15.5243 -0.641331
rfingers 7.12502
rthumb 40.3449 -25.7624
lclavicle -1.25234e-014 -1.64991e-014
lhumerus -45.0561 9.89122 68.8033
lradius 36.4615
lwrist 4.80745
lhand -9.87435 24.251
lfingers 7.12502
lthumb 16.1046 53.6018
rfemur -16.9209 -6.9577 32.7776
rtibia 41.4234
rfoot 39.2593 -21.7149
rtoes 28.2007
lfemur -38.3048 3.24701 -28.6835
ltibia 31.575
lfoot -43.3752 27.6781
ltoes 26.0952
184
root 1.76977 17.2394 34.9018 -161.356 -51.894 -172.204
lowerback -17.0055 2.28593 2.84368
upperback -9.32712 1.58855 1.68866
thorax -0.379829 0.304687 0.432078
lowerneck -4.05826 -6.96239 -1.45283
upperneck 26.9492 -13.0969 5.66369
head 9.67513 -6.35233 0.832675
rclavicle -9.16025e-014 1.5704e-014
rhumerus -41.2744 -1.07515 -74.4429
rradius 22.3275
rwrist -1.85154
rhand 14.9393 -0.49691
rfingers 7.12502
rthumb 39.7945 -25.7846
lclavicle -9.16025e-014 1.5704e-014
lhumerus -44.9892 10.3775 68.6431
lradius 36.4982
lwrist 5.04387
lhand -9.62819 24.2292
lfingers 7.12502
lthumb 16.3417 53.5607
rfemur -18.6679 -7.28824 32.7284
rtibia 41.8454
rfoot 39.8279 -20.851
rtoes 27.0736
lfemur -39.6125 1.59752 -28.3707
ltibia 31.5422
lfoot -45.0644 28.0675
ltoes 27.7178
